<svg xmlns="http://www.w3.org/2000/svg" viewBox="0 0 32 32">
  <defs>
    <!-- 定义渐变色 -->
    <linearGradient id="bgGradient" x1="0%" y1="0%" x2="100%" y2="100%">
      <stop offset="0%" style="stop-color:#1e3a8a;stop-opacity:1" />
      <stop offset="100%" style="stop-color:#581c87;stop-opacity:1" />
    </linearGradient>

    <!-- AI风格发光效果 -->
    <filter id="aiGlow">
      <feGaussianBlur stdDeviation="1.2" result="coloredBlur"/>
      <feMerge>
        <feMergeNode in="coloredBlur"/>
        <feMergeNode in="coloredBlur"/>
        <feMergeNode in="SourceGraphic"/>
      </feMerge>
    </filter>
  </defs>

  <!-- 深色圆形背景 -->
  <circle cx="16" cy="16" r="16" fill="#030712"/>
  <circle cx="16" cy="16" r="16" fill="url(#bgGradient)" opacity="0.4"/>

  <!-- YL字母 - 融入神经网络节点设计 -->
  <g filter="url(#aiGlow)">
    <!-- Y字母骨架 -->
    <g stroke="#60a5fa" stroke-width="2.5" stroke-linecap="round" fill="none">
      <path d="M 7 8 L 12 15"/>
      <path d="M 17 8 L 12 15"/>
      <path d="M 12 15 L 12 23"/>
    </g>

    <!-- L字母骨架 -->
    <g stroke="#a78bfa" stroke-width="2.5" stroke-linecap="round" fill="none">
      <path d="M 20 9 L 20 19"/>
      <path d="M 20 19 L 26 19"/>
    </g>

    <!-- AI神经网络节点 - Y的关键节点 -->
    <circle cx="7" cy="8" r="2" fill="#3b82f6" opacity="0.9"/>
    <circle cx="17" cy="8" r="2" fill="#3b82f6" opacity="0.9"/>
    <circle cx="12" cy="15" r="2.5" fill="#60a5fa"/>
    <circle cx="12" cy="23" r="2" fill="#8b5cf6" opacity="0.9"/>

    <!-- AI神经网络节点 - L的关键节点 -->
    <circle cx="20" cy="9" r="2" fill="#7c3aed" opacity="0.9"/>
    <circle cx="20" cy="19" r="2.5" fill="#a78bfa"/>
    <circle cx="26" cy="19" r="2" fill="#c4b5fd" opacity="0.9"/>

    <!-- 神经网络连接线 - 细微的数据流 -->
    <g opacity="0.5">
      <path d="M 12 15 L 20 15" stroke="#60a5fa" stroke-width="0.8" stroke-dasharray="1.5,1.5" fill="none"/>
      <circle cx="16" cy="15" r="1" fill="#60a5fa" opacity="0.6"/>
    </g>

    <!-- AI数据流装饰点 -->
    <g opacity="0.4">
      <circle cx="9" cy="11" r="0.8" fill="#60a5fa"/>
      <circle cx="15" cy="11" r="0.8" fill="#60a5fa"/>
      <circle cx="23" cy="14" r="0.8" fill="#a78bfa"/>
      <circle cx="16" cy="21" r="0.8" fill="#8b5cf6"/>
    </g>
  </g>

  <!-- AI芯片边框 - 六边形 -->
  <g fill="none" stroke="#3b82f6" stroke-width="0.4" opacity="0.3">
    <circle cx="16" cy="16" r="13.5"/>
    <circle cx="16" cy="16" r="11.5" stroke-dasharray="2,2"/>
  </g>

  <!-- 角落的AI芯片引脚装饰 -->
  <g stroke="#60a5fa" stroke-width="0.5" opacity="0.25">
    <line x1="3" y1="16" x2="5" y2="16"/>
    <line x1="27" y1="16" x2="29" y2="16"/>
    <line x1="16" y1="3" x2="16" y2="5"/>
    <line x1="16" y1="27" x2="16" y2="29"/>
  </g>
</svg>
